# xmcd
#
# Track frame offsets:
#	150
#	13995
#	32944
#	52133
#	71598
#	93999
#	124716
#	144741
#	165632
#	191311
#
# Disc length: 4108 seconds
#
# Revision: 1
# Processed by: cddbd v1.5.1PL2 Copyright (c) Steve Scherf et al.
# Submitted via: audiograbber 1.80.04
#
DISCID=8e100a0a
DTITLE=The Ronnies - Previously unreleased
DYEAR=2005
DGENRE=Blues
TTITLE0=Bird and Bee
TTITLE1=Hoochie coochie man
TTITLE2=Give Ronnie a chance
TTITLE3=Jesus let me down
TTITLE4=BOrn under a bad down
TTITLE5=Hight tonight
TTITLE6=Supertition
TTITLE7=Entre deux joints
TTITLE8=Red chevey
TTITLE9=Scalded cat
EXTD=Produit par ronnies www.theronnies.ca
EXTT0=
EXTT1=
EXTT2=
EXTT3=
EXTT4=
EXTT5=
EXTT6=
EXTT7=
EXTT8=
EXTT9=
PLAYORDER=
